<?xml version="1.0" standalone="no"?>
<!DOCTYPE svg PUBLIC "-//W3C//DTD SVG 20010904//EN"
 "http://www.w3.org/TR/2001/REC-SVG-20010904/DTD/svg10.dtd">
<svg version="1.0" xmlns="http://www.w3.org/2000/svg"
 width="427.000000pt" height="640.000000pt" viewBox="0 0 427.000000 640.000000"
 preserveAspectRatio="xMidYMid meet">
<metadata>
Created by potrace 1.16, written by Peter Selinger 2001-2019
</metadata>
<g transform="translate(0.000000,640.000000) scale(0.100000,-0.100000)"
fill="#000000" stroke="none">
<path d="M0 5345 l0 -1055 40 0 c22 0 40 -4 40 -10 0 -18 20 -11 47 16 20 20
28 23 34 13 6 -11 17 -11 54 -1 25 7 72 12 105 12 33 0 60 4 60 10 0 6 23 10
50 10 28 0 50 -4 50 -10 0 -14 43 -12 59 3 11 10 14 10 18 0 7 -19 83 -17 83
2 0 13 20 15 120 15 107 0 120 2 121 18 0 14 3 13 16 -5 8 -13 22 -23 29 -23
8 0 14 -4 14 -10 0 -5 14 -10 32 -10 17 0 40 -7 50 -17 17 -15 18 -15 18 10 0
25 2 24 49 -21 30 -30 44 -50 37 -54 -7 -5 -6 -8 3 -8 8 0 20 8 27 18 11 16
13 15 23 -11 6 -16 9 -32 6 -37 -3 -4 2 -21 10 -36 l15 -29 0 25 c0 16 13 37
35 57 19 18 35 39 35 47 0 16 18 31 27 23 3 -3 -2 -18 -10 -34 -19 -35 -67
-142 -67 -149 0 -16 -83 -123 -200 -259 -65 -76 -147 -227 -175 -324 -19 -65
-31 -211 -17 -211 6 0 14 17 18 37 4 21 14 44 22 52 13 13 14 12 8 -7 -5 -14
-2 -27 8 -37 23 -23 29 -18 22 19 -4 18 -2 44 3 57 l9 24 11 -28 c8 -22 7 -38
-8 -80 -33 -91 -44 -172 -38 -265 7 -93 20 -140 69 -240 20 -42 28 -72 25 -90
-3 -16 1 -35 9 -46 23 -31 18 -49 -12 -43 -18 3 -24 1 -20 -9 4 -11 -12 -14
-79 -14 -61 0 -85 4 -86 13 0 6 -16 25 -36 41 -26 22 -37 26 -43 17 -5 -9 -13
-10 -26 -3 -19 10 -105 32 -124 32 -6 0 -10 -9 -10 -20 0 -11 -4 -20 -10 -20
-5 0 -10 6 -10 13 0 14 -41 57 -53 57 -4 0 -7 -11 -7 -25 0 -31 -3 -31 -34 0
-14 14 -34 25 -46 25 -12 0 -32 -11 -46 -25 -29 -29 -34 -31 -34 -10 0 12 -16
15 -80 15 -79 0 -80 0 -80 25 0 25 -1 25 -80 25 l-80 0 0 -614 0 -613 68 -17
c85 -20 89 -20 97 4 3 11 11 20 16 20 5 0 2 -11 -6 -24 -13 -19 -13 -25 -3
-28 7 -3 -6 -8 -30 -12 -24 -3 -48 -3 -54 0 -7 5 -8 2 -3 -6 5 -9 2 -10 -13
-6 -11 4 -32 4 -46 0 l-25 -6 -1 -608 0 -609 62 -35 c51 -29 58 -36 37 -36
-14 0 -29 4 -35 9 -5 5 -21 7 -37 4 l-27 -5 0 -109 0 -109 2135 0 2135 0 0
364 0 365 -22 4 -23 4 23 8 c24 8 29 21 10 28 -10 4 -10 6 0 6 8 1 12 22 12
70 0 64 -2 70 -22 74 l-23 4 23 2 c22 1 22 2 22 160 0 144 -2 160 -17 164 -16
4 -16 5 -1 6 15 1 17 18 17 153 0 109 -3 155 -12 160 -9 6 -9 8 1 8 9 0 12 90
12 416 l0 416 -31 -7 c-17 -4 -42 -13 -57 -21 -15 -8 -33 -14 -40 -14 -22 0
-76 -31 -97 -56 -11 -13 -29 -24 -38 -24 -10 0 -25 -6 -33 -13 -37 -30 -74
-73 -74 -85 0 -24 -48 -62 -78 -62 -16 0 -47 -7 -68 -16 -46 -19 -111 -13
-177 16 -37 16 -76 21 -216 25 -116 4 -177 2 -191 -5 -12 -6 -40 -13 -63 -15
-23 -1 -60 -8 -82 -14 -82 -22 -192 -41 -260 -46 -72 -5 -77 -8 -115 -65 -31
-48 -106 -129 -236 -257 -74 -72 -134 -137 -134 -145 -1 -20 -33 -55 -60 -63
l-24 -8 30 -12 29 -12 -37 1 c-20 1 -34 4 -31 9 2 4 -1 7 -6 7 -6 0 -11 14
-11 30 0 17 5 30 10 30 6 0 8 11 5 25 -3 14 -7 36 -10 50 -3 14 -10 25 -16 25
-6 0 -26 12 -45 26 -19 15 -34 22 -34 17 0 -5 -30 -8 -67 -8 -37 1 -61 -1 -54
-3 8 -3 -3 -13 -25 -26 -29 -15 -47 -37 -67 -79 -19 -38 -35 -57 -47 -57 -29
0 -38 17 -53 112 -5 29 -15 31 -38 9 -16 -15 -26 -18 -35 -10 -8 7 -14 6 -17
-3 -4 -10 -6 -9 -6 1 -1 11 -5 10 -17 -5 -15 -19 -16 -19 -10 1 6 19 5 19 -8
1 -14 -17 -15 -16 -21 18 -4 20 -11 36 -16 36 -5 0 -6 -7 -3 -15 4 -9 0 -15
-9 -15 -14 0 -34 -35 -29 -52 1 -5 -2 -8 -7 -8 -15 0 -23 37 -19 88 l3 47 -65
0 c-172 -2 -234 -8 -312 -35 -44 -14 -92 -36 -105 -48 -30 -27 -44 -30 -156
-36 -48 -3 -92 -8 -98 -12 -6 -4 -35 -8 -63 -9 -89 -5 -171 -17 -184 -28 -7
-5 -15 -7 -19 -3 -8 7 -8 7 37 28 29 14 31 17 13 17 -13 1 -23 5 -23 10 0 5
19 7 43 5 33 -3 37 -2 17 5 -25 9 -25 9 5 11 21 1 25 3 13 8 -13 6 -14 10 -5
22 7 8 21 20 32 27 11 6 19 16 18 22 -2 6 6 11 17 11 11 0 20 5 20 11 0 27
135 149 164 149 8 0 17 4 20 9 3 4 38 19 78 31 40 13 77 27 82 32 6 4 23 8 40
8 19 0 40 10 58 27 24 23 30 25 38 13 8 -12 14 -10 38 13 24 23 37 27 83 27
46 0 59 4 79 25 13 14 29 25 36 25 6 0 17 7 24 15 11 13 8 15 -14 15 -26 0
-26 0 -26 80 0 47 4 80 10 80 6 0 10 -7 10 -16 0 -14 2 -15 17 -3 15 13 15 14
0 17 -21 4 -22 45 -2 62 8 7 13 16 10 20 -7 11 51 59 78 65 12 2 49 9 82 15
72 14 165 50 165 64 0 6 5 4 10 -4 7 -11 10 -8 10 15 -1 17 -8 39 -16 50 -16
20 -16 20 -10 -1 5 -17 2 -20 -16 -18 -13 1 -38 3 -57 3 -32 1 -33 2 -29 40 2
28 0 37 -10 34 -7 -3 -51 -2 -97 2 -61 5 -85 11 -85 20 0 8 -10 15 -22 17 -19
2 -23 10 -24 38 -2 55 -13 83 -29 70 -10 -8 -14 -7 -17 2 -3 7 -3 -16 0 -51
l5 -63 -34 7 c-19 4 -62 25 -96 47 -116 74 -177 166 -171 256 2 34 7 47 18 47
8 0 14 -6 13 -12 -2 -7 1 -13 7 -13 5 0 14 -19 20 -42 18 -70 29 -93 42 -80 8
8 8 30 0 81 -7 38 -12 84 -12 101 0 60 85 209 107 187 2 -2 9 -27 15 -55 7
-29 15 -52 19 -52 3 0 12 39 19 88 16 107 21 123 57 156 31 29 49 32 88 14 46
-21 132 27 171 93 12 22 56 36 53 17 -1 -7 -1 -28 0 -45 1 -27 5 -33 22 -33
14 0 19 -5 16 -14 -7 -17 51 -36 79 -25 11 4 27 18 36 31 29 43 53 63 78 66
14 1 31 10 38 19 7 10 12 12 12 4 0 -7 4 -10 10 -6 5 3 1 19 -10 37 -12 20
-17 41 -13 58 4 22 1 28 -16 33 -12 3 -21 12 -21 21 0 18 15 21 25 6 3 -5 14
-10 23 -10 19 1 82 54 82 70 0 14 11 12 34 -5 25 -19 67 -19 92 0 11 8 41 15
70 15 45 0 52 -3 58 -22 l6 -23 19 24 19 24 7 -23 c5 -14 10 -18 14 -11 6 8
17 7 44 -4 29 -12 37 -12 38 -3 2 40 18 -38 18 -92 1 -77 12 -68 36 31 l17 67
39 -9 c22 -5 45 -7 50 -3 6 3 13 -3 16 -15 7 -27 19 -27 26 -1 3 13 10 18 21
14 9 -3 16 -10 16 -14 0 -5 38 -47 83 -94 97 -99 121 -108 131 -46 3 22 11 40
16 40 6 0 10 5 10 11 0 15 25 37 54 49 29 10 36 -6 14 -28 -9 -9 -7 -12 9 -12
12 0 25 -4 28 -10 3 -5 15 -10 25 -10 11 0 30 -11 44 -25 16 -16 36 -25 56
-25 16 0 47 -9 67 -20 21 -11 46 -17 56 -14 35 11 62 -20 86 -102 13 -44 28
-91 34 -106 15 -36 49 -51 85 -36 73 30 102 44 162 79 36 21 81 44 100 50 39
14 59 35 60 62 0 18 47 100 61 105 4 2 19 26 34 53 24 47 60 93 111 143 11 12
23 29 27 39 7 19 25 21 130 17 l67 -2 0 570 0 570 -36 0 c-20 0 -44 8 -55 18
-21 19 -26 64 -7 64 9 0 9 3 0 12 -7 7 -12 21 -12 32 -1 19 -3 19 -24 -6 -15
-16 -22 -35 -19 -46 5 -21 -26 -40 -36 -23 -4 5 -42 13 -86 18 -44 4 -70 9
-58 11 20 3 22 6 12 25 -7 12 -21 29 -33 39 -12 10 -15 17 -8 18 7 0 12 15 12
41 0 36 -2 41 -20 36 -22 -6 -40 18 -40 53 0 11 -7 35 -16 52 -21 41 -11 80
19 76 15 -2 21 -9 19 -21 -2 -9 5 -20 15 -24 10 -4 21 -11 25 -17 11 -17 78
25 78 49 0 16 10 23 45 31 34 8 45 7 45 -2 0 -10 21 -24 35 -24 2 0 12 16 21
35 12 27 21 34 35 30 11 -4 26 2 38 14 12 12 28 21 36 21 13 0 15 58 15 465
l0 465 -2135 0 -2135 0 0 -1055z m1920 744 c7 12 15 10 44 -13 27 -21 36 -23
36 -12 0 12 11 16 40 16 29 0 40 -4 40 -16 0 -12 7 -10 33 9 25 19 41 23 69
20 21 -3 36 -9 33 -13 -3 -4 2 -13 10 -20 8 -7 15 -21 15 -32 0 -11 8 -32 18
-46 10 -15 22 -35 25 -44 4 -10 13 -18 22 -18 23 0 18 -18 -12 -44 -24 -20
-27 -30 -24 -74 1 -29 -2 -53 -9 -57 -8 -5 -5 -11 7 -21 17 -13 17 -14 -4 -20
-13 -3 -23 -10 -23 -14 0 -11 -64 -22 -84 -14 -11 4 -16 18 -16 47 0 59 -29
87 -92 87 -26 0 -48 -4 -48 -9 0 -5 -36 -12 -80 -16 -44 -4 -80 -11 -80 -16 0
-5 -4 -9 -10 -9 -5 0 -20 -11 -34 -25 -14 -14 -30 -25 -36 -25 -6 0 -22 11
-36 25 -28 28 -40 31 -48 13 -5 -10 -7 -10 -12 0 -3 6 -19 12 -35 12 -16 0
-29 5 -29 10 0 6 -6 10 -14 10 -22 0 -41 29 -28 42 9 9 7 17 -9 34 l-22 23 37
17 c20 10 36 25 36 33 1 9 19 30 40 46 21 17 39 36 40 43 0 7 15 12 40 12 38
0 40 -1 40 -32 0 -29 1 -30 18 -15 10 10 24 17 32 17 10 0 10 3 0 15 -14 17
-15 17 23 33 15 6 32 24 38 39 10 27 11 28 25 8 12 -16 16 -17 24 -6z m1618
-575 c18 -8 57 -18 87 -21 50 -5 55 -8 55 -29 0 -19 5 -24 25 -24 14 0 25 -4
25 -10 0 -5 7 -10 15 -10 8 0 15 -7 15 -15 0 -18 -12 -19 -27 -4 -8 8 -13 5
-18 -10 -3 -12 -13 -21 -21 -21 -12 0 -12 -3 1 -23 8 -13 12 -27 8 -30 -13
-14 -22 -6 -25 20 -2 22 -10 29 -38 37 -19 5 -38 15 -42 20 -4 6 -8 1 -8 -11
0 -41 -27 -25 -35 20 -7 41 -8 41 -19 17 -8 -18 -17 -24 -33 -22 -12 2 -30 -1
-40 -6 -14 -9 -11 -11 20 -17 33 -6 37 -11 37 -37 0 -16 7 -37 16 -45 14 -15
14 -17 -1 -26 -12 -6 -25 -5 -40 3 -13 7 -32 10 -43 8 -15 -4 -18 -1 -14 17 3
20 0 22 -22 18 -33 -7 -33 9 -1 33 37 28 32 44 -15 44 -36 0 -40 3 -40 25 0
14 -4 25 -10 25 -5 0 -10 18 -10 40 0 22 5 40 10 40 6 0 10 -11 10 -25 0 -22
4 -25 40 -25 28 0 40 -4 40 -14 0 -8 9 -17 20 -20 11 -3 29 -9 40 -12 32 -9
25 33 -11 64 -29 23 -30 27 -13 33 27 11 28 11 62 -7z m-18 -474 l0 -50 40 0
c29 0 40 -4 40 -15 0 -8 7 -15 15 -15 11 0 15 11 15 38 0 31 5 41 29 55 36 21
91 22 117 2 10 -8 15 -15 10 -15 -5 0 -3 -7 4 -15 18 -22 -2 -41 -51 -48 -23
-3 -47 -11 -53 -18 -8 -9 -8 -10 2 -5 6 4 12 3 12 -2 0 -20 -49 -34 -92 -28
-50 8 -77 28 -100 76 -32 69 -33 90 -2 90 10 0 14 -13 14 -50z m-1846 -3476
c9 -8 28 -16 43 -17 16 -1 34 -8 41 -14 7 -7 20 -13 28 -13 8 0 14 -9 14 -19
0 -10 7 -22 16 -25 8 -3 12 -10 9 -16 -4 -6 7 -10 27 -11 18 -1 44 -5 58 -10
16 -5 -14 -7 -80 -4 -58 2 -124 4 -147 5 -36 0 -43 3 -43 20 0 11 -5 20 -11
20 -5 0 -7 5 -3 12 5 8 2 9 -9 5 -14 -5 -15 -3 -4 13 6 11 19 20 27 20 13 0
13 1 0 10 -12 7 -12 10 -1 10 7 0 11 6 7 15 -7 20 8 19 28 -1z m1629 -68 c7
-19 -5 -23 -121 -41 -53 -8 -110 -17 -127 -20 -53 -8 -208 -22 -270 -25 -33
-1 -78 -3 -100 -4 -22 -1 -48 -1 -57 2 -39 10 -13 20 70 26 148 12 196 16 227
20 17 3 60 8 98 11 37 4 67 10 67 14 0 3 26 7 58 9 31 1 71 6 87 11 44 14 62
13 68 -3z m-6 -189 c17 -22 60 -26 47 -5 -5 7 -2 8 6 3 10 -6 7 -12 -9 -24
-12 -9 -19 -20 -15 -24 10 -10 36 -9 30 1 -3 5 0 9 7 9 7 0 26 3 42 7 l30 6
-29 -14 c-20 -9 -25 -15 -15 -19 8 -3 2 -6 -13 -6 -38 -1 -35 -14 10 -52 38
-31 38 -33 20 -51 -18 -18 -19 -18 -46 7 -15 14 -30 25 -33 25 -4 0 -22 22
-40 49 -27 40 -39 49 -59 47 -14 -2 -17 -1 -7 1 10 3 17 14 17 27 0 42 28 49
57 13z m-1992 -587 c3 -5 16 -10 28 -10 13 0 26 -9 32 -22 6 -13 19 -25 30
-27 11 -2 33 -14 48 -27 47 -39 143 -61 290 -64 13 0 7 -40 -6 -40 -7 0 -76
11 -153 24 -107 18 -150 30 -180 49 -24 15 -61 28 -94 32 -30 3 -68 8 -85 10
-16 2 -38 4 -48 4 -11 1 -15 6 -11 12 4 7 22 9 46 6 22 -3 53 -1 69 5 29 10
29 11 14 34 -13 21 -13 24 -1 24 8 0 18 -4 21 -10z"/>
<path d="M3121 3533 c3 -36 -2 -44 -41 -59 -22 -9 -40 -20 -40 -25 0 -5 -15
-9 -34 -9 -37 0 -46 -12 -46 -64 0 -35 34 -76 62 -76 8 0 38 9 66 21 35 14 54
29 61 48 13 33 18 152 8 169 -12 18 -39 15 -36 -5z"/>
<path d="M2630 3161 c0 -18 26 -65 44 -80 9 -8 16 -24 16 -36 0 -13 9 -44 20
-70 11 -26 20 -55 20 -65 0 -9 7 -23 14 -30 8 -6 20 -28 27 -48 15 -51 43
-111 50 -112 3 0 -1 26 -9 58 -8 31 -24 104 -36 162 -16 74 -27 105 -37 105
-14 0 -39 37 -39 59 -1 18 -39 63 -40 46 -1 -11 -4 -10 -15 4 -8 11 -15 14
-15 7z"/>
</g>
</svg>
